<svg xmlns="http://www.w3.org/2000/svg" width="1280" height="720" viewBox="0 0 1280 720"><defs><marker id="arrow" markerWidth="8" markerHeight="8" refX="6" refY="3" orient="auto"><path d="M0 0L6 3L0 6" fill="none" stroke="#4b83d4"/></marker></defs><rect width="1280" height="720" rx="24" fill="#f2f6fc"/><g font-family="Microsoft YaHei, sans-serif"><text x="52" y="65" font-size="34" fill="#173765" font-weight="700">设计流程与执行链路</text><text x="52" y="103" font-size="19" fill="#526987" font-weight="400">先确认设计，再扩展；实际写入与导出由配套连接器执行。</text><rect x="52" y="148" width="176" height="106" rx="14" fill="#ffffff" stroke="#cfddf0"/><text x="68" y="190" font-size="22" fill="#173765" font-weight="700">视觉分析</text><text x="68" y="227" font-size="14" fill="#526987" font-weight="400">结构 / 素材 / 需求</text><path d="M232 201h16" stroke="#4b83d4" marker-end="url(#arrow)"/><rect x="252" y="148" width="176" height="106" rx="14" fill="#ffffff" stroke="#cfddf0"/><text x="268" y="190" font-size="22" fill="#173765" font-weight="700">规范与组件</text><text x="268" y="227" font-size="14" fill="#526987" font-weight="400">代表素材与组件</text><path d="M432 201h16" stroke="#4b83d4" marker-end="url(#arrow)"/><rect x="452" y="148" width="176" height="106" rx="14" fill="#e4efff" stroke="#cfddf0"/><text x="468" y="190" font-size="22" fill="#173765" font-weight="700">确认①</text><text x="468" y="227" font-size="14" fill="#526987" font-weight="400">确认视觉体系</text><path d="M632 201h16" stroke="#4b83d4" marker-end="url(#arrow)"/><rect x="652" y="148" width="176" height="106" rx="14" fill="#ffffff" stroke="#cfddf0"/><text x="668" y="190" font-size="22" fill="#173765" font-weight="700">样板还原</text><text x="668" y="227" font-size="14" fill="#526987" font-weight="400">完整页面对照</text><path d="M832 201h16" stroke="#4b83d4" marker-end="url(#arrow)"/><rect x="852" y="148" width="176" height="106" rx="14" fill="#e4efff" stroke="#cfddf0"/><text x="868" y="190" font-size="22" fill="#173765" font-weight="700">确认②</text><text x="868" y="227" font-size="14" fill="#526987" font-weight="400">确认整页效果</text><path d="M1032 201h16" stroke="#4b83d4" marker-end="url(#arrow)"/><rect x="1052" y="148" width="176" height="106" rx="14" fill="#ffffff" stroke="#cfddf0"/><text x="1068" y="190" font-size="22" fill="#173765" font-weight="700">扩展与验收</text><text x="1068" y="227" font-size="14" fill="#526987" font-weight="400">系统页面 / 交付</text><text x="52" y="328" font-size="25" fill="#173765" font-weight="700">执行链路</text><rect x="52" y="366" width="350" height="132" rx="18" fill="#ffffff" stroke="#cfddf0"/><text x="76" y="414" font-size="25" fill="#173765" font-weight="700">AI 宿主 + Skill</text><text x="76" y="460" font-size="16" fill="#526987" font-weight="400">分析、规划、发出指令</text><rect x="450" y="366" width="350" height="132" rx="18" fill="#ffffff" stroke="#cfddf0"/><text x="474" y="414" font-size="25" fill="#173765" font-weight="700">本地桥接服务</text><text x="474" y="460" font-size="16" fill="#526987" font-weight="400">会话口令 / 明确目标 / 状态查询</text><rect x="848" y="366" width="350" height="132" rx="18" fill="#ffffff" stroke="#cfddf0"/><text x="872" y="414" font-size="25" fill="#173765" font-weight="700">Figma 开发插件</text><text x="872" y="460" font-size="16" fill="#526987" font-weight="400">可编辑图层 / 组件 / PNG导出</text><path d="M410 423h30" stroke="#4b83d4" stroke-width="2" marker-end="url(#arrow)"/><path d="M808 423h30" stroke="#4b83d4" stroke-width="2" marker-end="url(#arrow)"/><path d="M1020 516v40H220v-40" fill="none" stroke="#4b83d4" stroke-width="2" marker-end="url(#arrow)"/><text x="462" y="587" font-size="19" fill="#3566a5" font-weight="400">执行结果返回 → 导出检查 → 必要修正</text><text x="52" y="657" font-size="17" fill="#526987" font-weight="400">SVG / PNG素材由现有资产或另行配置的图像生成工具提供；连接器不内置生图模型。</text></g></svg>